# Blender v2.90.1 OBJ File: 'tree.blend'
# www.blender.org
mtllib tree.mtl
o Grid.001
v -2.250000 5.000000 -0.000000
v -2.250000 3.333333 -0.000000
v -2.250000 1.666666 -0.000000
v -2.250000 -0.000000 -0.000000
v -0.750000 5.000000 -0.000000
v -0.750000 3.333333 -0.000000
v -0.750000 1.666667 -0.000000
v -0.750000 0.000000 -0.000000
v 0.750000 5.000000 0.000000
v 0.750000 3.333333 0.000000
v 0.750000 1.666667 0.000000
v 0.750000 0.000000 0.000000
v 2.250000 5.000000 0.000000
v 2.250000 3.333333 0.000000
v 2.250000 1.666667 0.000000
v 2.250000 0.000000 0.000000
vt 0.025157 0.976965
vt 0.020443 0.634343
vt 0.295749 0.634902
vt 0.300463 0.977523
vt 0.023214 0.355542
vt 0.298520 0.356100
vt 0.020900 0.004685
vt 0.296205 0.005243
vt 0.694093 0.637673
vt 0.698807 0.980294
vt 0.696864 0.358871
vt 0.694550 0.008014
vt 0.979303 0.636224
vt 0.984016 0.978845
vt 0.982074 0.357422
vt 0.979759 0.006565
vn -0.0000 -0.0000 1.0000
usemtl Material.002
s off
f 1/1/1 2/2/1 6/3/1 5/4/1
f 2/2/1 3/5/1 7/6/1 6/3/1
f 3/5/1 4/7/1 8/8/1 7/6/1
f 5/4/1 6/3/1 10/9/1 9/10/1
f 6/3/1 7/6/1 11/11/1 10/9/1
f 7/6/1 8/8/1 12/12/1 11/11/1
f 9/10/1 10/9/1 14/13/1 13/14/1
f 10/9/1 11/11/1 15/15/1 14/13/1
f 11/11/1 12/12/1 16/16/1 15/15/1
o Grid
v 0.000000 5.000000 2.250000
v 0.000000 3.333333 2.250000
v -0.000000 1.666667 2.250000
v -0.000000 0.000000 2.250000
v 0.000000 5.000000 0.750000
v 0.000000 3.333333 0.750000
v -0.000000 1.666667 0.750000
v -0.000000 0.000000 0.750000
v 0.000000 5.000000 -0.750000
v 0.000000 3.333333 -0.750000
v -0.000000 1.666667 -0.750000
v -0.000000 0.000000 -0.750000
v 0.000000 5.000000 -2.250000
v 0.000000 3.333333 -2.250000
v -0.000000 1.666667 -2.250000
v -0.000000 0.000000 -2.250000
vt 0.025157 0.976965
vt 0.020443 0.634343
vt 0.295749 0.634902
vt 0.300463 0.977523
vt 0.023214 0.355542
vt 0.298520 0.356100
vt 0.020900 0.004685
vt 0.296205 0.005243
vt 0.694093 0.637673
vt 0.698807 0.980294
vt 0.696864 0.358871
vt 0.694550 0.008014
vt 0.979303 0.636224
vt 0.984016 0.978845
vt 0.982074 0.357422
vt 0.979759 0.006565
vn 1.0000 -0.0000 0.0000
usemtl Material.001
s off
f 17/17/2 18/18/2 22/19/2 21/20/2
f 18/18/2 19/21/2 23/22/2 22/19/2
f 19/21/2 20/23/2 24/24/2 23/22/2
f 21/20/2 22/19/2 26/25/2 25/26/2
f 22/19/2 23/22/2 27/27/2 26/25/2
f 23/22/2 24/24/2 28/28/2 27/27/2
f 25/26/2 26/25/2 30/29/2 29/30/2
f 26/25/2 27/27/2 31/31/2 30/29/2
f 27/27/2 28/28/2 32/32/2 31/31/2
