# Blender v3.0.0 OBJ File: 'daytona_international_speedway.blend'
# www.blender.org
mtllib disp_tunnel.mtl
o Cube_Cube.006
v -29.805059 -1.000000 30.119251
v -29.805059 15.209285 30.119251
v -29.805059 -1.000000 -10.139802
v -29.805059 15.209285 -10.139802
v 113.959618 -1.000000 30.119251
v 113.959618 15.209285 30.119251
v 113.959618 -1.000000 -10.139802
v 113.959618 15.209285 -10.139802
v -29.805059 14.083889 9.989724
v 41.400070 -1.000000 -10.139802
v 113.959618 14.083889 9.989724
v 37.890404 -1.000000 30.119251
v 40.585518 14.083889 9.989724
v -29.805059 11.946960 27.767803
v -22.103794 -1.000000 -10.139802
v 113.959618 12.458946 -7.941016
v 45.591671 -1.000000 30.119251
v -29.805059 12.458946 -7.941016
v 49.101337 -1.000000 -10.139802
v 113.959618 11.946960 27.767803
v -22.103794 -1.000000 30.119251
v 39.936779 11.946960 27.767803
v 43.418526 12.458946 -7.941016
v -22.103794 14.083889 9.989724
v 48.286781 14.083889 9.989724
v 51.119793 12.458946 -7.941016
v -22.103794 12.458946 -7.941016
v -22.103794 11.946960 27.767803
v 47.638046 11.946960 27.767803
vt 0.375000 0.000000
vt 0.625000 0.000000
vt 0.375000 0.062500
vt 0.375000 0.250000
vt 0.625000 0.250000
vt 0.375000 0.312500
vt 0.375000 0.500000
vt 0.625000 0.500000
vt 0.375000 0.562500
vt 0.375000 0.750000
vt 0.625000 0.750000
vt 0.375000 0.812500
vt 0.312500 0.687500
vt 0.375000 0.687500
vt 0.312500 0.750000
vt 0.875000 0.500000
vt 0.875000 0.750000
vt 0.187500 0.687500
vt 0.250000 0.687500
vt 0.250000 0.750000
vt 0.187500 0.750000
vt 0.187500 0.562500
vt 0.250000 0.562500
vt 0.250000 0.625000
vt 0.187500 0.625000
vt 0.312500 0.562500
vt 0.375000 0.625000
vt 0.312500 0.625000
vt 0.375000 0.875000
vt 0.625000 1.000000
vt 0.375000 0.937500
vt 0.375000 0.375000
vt 0.375000 0.437500
vt 0.375000 0.125000
vt 0.375000 0.187500
vt 0.375000 1.000000
vt 0.250000 0.500000
vt 0.312500 0.500000
vt 0.125000 0.562500
vt 0.125000 0.625000
vt 0.125000 0.500000
vt 0.187500 0.500000
vt 0.125000 0.687500
vt 0.125000 0.750000
vn -1.0000 0.0000 0.0000
vn 0.0000 0.0000 -1.0000
vn 1.0000 0.0000 0.0000
vn 0.0000 0.0000 1.0000
vn 0.0000 -0.1787 -0.9839
vn 0.0000 1.0000 0.0000
vn 0.0000 -0.9959 0.0903
vn 0.0000 -0.1612 0.9869
vn 0.0000 -0.9929 -0.1193
usemtl None
s off
f 1/1/1 2/2/1 14/3/1
f 3/4/2 4/5/2 15/6/2
f 7/7/3 8/8/3 16/9/3
f 5/10/4 6/11/4 17/12/4
f 29/13/5 20/14/5 5/10/5 17/15/5
f 8/8/6 4/16/6 2/17/6 6/11/6
f 28/18/5 22/19/5 12/20/5 21/21/5
f 27/22/7 23/23/7 13/24/7 24/25/7
f 26/26/7 16/9/7 11/27/7 25/28/7
f 12/29/4 2/30/4 21/31/4
f 6/11/4 2/30/4 12/29/4
f 11/27/3 6/11/3 20/14/3
f 8/8/3 6/11/3 11/27/3
f 10/32/2 8/8/2 19/33/2
f 4/5/2 8/8/2 10/32/2
f 9/34/1 4/5/1 18/35/1
f 2/2/1 4/5/1 9/34/1
f 4/5/1 3/4/1 18/35/1
f 8/8/2 7/7/2 19/33/2
f 6/11/3 5/10/3 20/14/3
f 2/30/4 1/36/4 21/31/4
f 23/23/7 26/26/7 25/28/7 13/24/7
f 10/37/8 19/38/8 26/26/8 23/23/8
f 19/38/8 7/7/8 16/9/8 26/26/8
f 18/39/7 27/22/7 24/25/7 9/40/7
f 3/41/8 15/42/8 27/22/8 18/39/8
f 15/42/8 10/37/8 23/23/8 27/22/8
f 14/43/5 28/18/5 21/21/5 1/44/5
f 9/40/9 24/25/9 28/18/9 14/43/9
f 24/25/9 13/24/9 22/19/9 28/18/9
f 22/19/5 29/13/5 17/15/5 12/20/5
f 13/24/9 25/28/9 29/13/9 22/19/9
f 25/28/9 11/27/9 20/14/9 29/13/9
f 6/11/4 12/29/4 17/12/4
f 8/8/3 11/27/3 16/9/3
f 4/5/2 10/32/2 15/6/2
f 2/2/1 9/34/1 14/3/1
